<?xml version="1.0" encoding="UTF-8"?>
<svg id="Ebene_1" data-name="Ebene 1" xmlns="http://www.w3.org/2000/svg" width="106.1mm" height="27.7mm" viewBox="0 0 300.7 78.6">
  <defs>
    <style>
      .cls-1 {
        fill: #e30613;
      }

      .cls-1, .cls-2, .cls-3 {
        stroke-width: 0px;
      }

      .cls-2 {
        fill: #fff;
      }

      .cls-3 {
        fill: #432918;
      }
    </style>
  </defs>
  <g>
    <g>
      <path class="cls-3" d="m4.9,23h4.5v2.7c1-1.9,3.2-3.2,6-3.2s7.5,2.5,7.5,7.9v11.6h-4.6v-10.3c0-3.3-1.7-5-4.2-5s-4.6,2.1-4.6,5.1v10.3h-4.6v-19Z"/>
      <path class="cls-3" d="m47.6,23v19h-4.3v-2.4c-1.4,1.6-3.5,2.8-6.2,2.8-5.5,0-9.4-4.4-9.4-10.1s4-9.9,9.4-9.9,4.7,1.2,6.2,2.9v-2.4h4.3Zm-4.2,9.5c0-3.2-2.3-5.8-5.6-5.8s-5.6,2.6-5.6,5.8,2.2,5.8,5.6,5.8,5.6-2.6,5.6-5.8Z"/>
      <path class="cls-3" d="m67.6,40.9c-1.5,1-3.6,1.6-5.5,1.6-4.3,0-6.5-2.6-6.5-7.4v-8.2h-3.2v-3.9h3.2v-6.7h4.5v6.7h6.4v3.9h-6.4v8c0,2.2.8,3.4,2.8,3.4s2.3-.4,3.2-1l1.4,3.6Z"/>
      <path class="cls-3" d="m71.5,34.1v-11.1h4.6v11.1c0,2.5,1.5,4.2,4,4.2s4-1.7,4-4.2v-11.1h4.6v11.1c0,5.3-3.3,8.4-8.6,8.4s-8.6-3.1-8.6-8.4Z"/>
      <path class="cls-3" d="m94.6,23h4.4v2.6c1.2-2.1,3-3.1,5.3-3.1s1.5.1,2.3.4l-.4,4.4c-.7-.2-1.5-.4-2.2-.4-2.6,0-4.8,1.7-4.8,5.9v9.3h-4.6v-19Z"/>
    </g>
    <path class="cls-3" d="m160.6,33.7l-1.4,1.3v7h-4.6V15.4h4.6v14.4l7.3-6.8h5.8l-8.6,7.9,9,11.2h-5.7l-6.5-8.3Z"/>
    <path class="cls-3" d="m173.9,32.5c0-5.5,4.1-10,10.2-10s10.2,4.5,10.2,10-4.1,10-10.2,10-10.2-4.5-10.2-10Zm15.7,0c0-3.2-2.4-5.8-5.6-5.8s-5.6,2.6-5.6,5.8,2.4,5.8,5.6,5.8,5.6-2.6,5.6-5.8Z"/>
    <path class="cls-3" d="m197.1,38.7l2.6-2.8c1.3,1.7,3.3,2.7,5.1,2.7s2.8-.9,2.8-2-.5-1.4-1.4-1.8c-1.1-.5-3.5-1.4-4.7-2-2.1-1.1-3.2-2.8-3.2-4.8,0-3.3,2.7-5.6,6.9-5.6s4.8.8,6.5,2.8l-2.4,2.9c-1.3-1.4-3-2-4.3-2s-2.3.8-2.3,1.8.4,1.4,1.6,1.9c1.2.5,3.1,1.1,4.6,1.9,2.1,1.1,3.2,2.6,3.2,4.8,0,3.4-2.9,6-7.4,6s-5.9-1.2-7.7-3.8Z"/>
    <path class="cls-3" d="m230.6,40.9c-1.5,1-3.6,1.6-5.5,1.6-4.3,0-6.5-2.6-6.5-7.4v-8.2h-3.2v-3.9h3.2v-6.7h4.5v6.7h6.4v3.9h-6.4v8c0,2.2.8,3.4,2.8,3.4s2.3-.4,3.2-1l1.4,3.6Z"/>
    <path class="cls-3" d="m255,32.5c0,5.6-4.1,10-9.5,10s-4.7-1.3-6.1-3v2.5h-4.5V15.4h4.6v10.1c1.4-1.6,3.3-2.9,6.1-2.9,5.4,0,9.5,4.3,9.5,10Zm-4.7,0c0-3.2-2.2-5.8-5.5-5.8s-5.5,2.6-5.5,5.8,2.2,5.8,5.5,5.8,5.5-2.6,5.5-5.8Z"/>
    <path class="cls-3" d="m278.4,23v19h-4.3v-2.4c-1.4,1.6-3.5,2.8-6.2,2.8-5.5,0-9.4-4.4-9.4-10.1s4-9.9,9.4-9.9,4.7,1.2,6.2,2.9v-2.4h4.3Zm-4.2,9.5c0-3.2-2.3-5.8-5.6-5.8s-5.6,2.6-5.6,5.8,2.2,5.8,5.6,5.8,5.6-2.6,5.6-5.8Z"/>
    <path class="cls-3" d="m284.5,23h4.4v2.6c1.2-2.1,3-3.1,5.3-3.1s1.5.1,2.3.4l-.4,4.4c-.7-.2-1.5-.4-2.2-.4-2.6,0-4.8,1.7-4.8,5.9v9.3h-4.6v-19Z"/>
    <path class="cls-3" d="m142.9,8c-1.4-1.9-2.7-3.5-4.9-4.7-.5-.3-1.1-.3-1.7,0-1.9,1.1-3.1,2.7-4.3,4.4,0,0,1.3,1.5,1.3,1.5.9-.4,2-.7,3-.9,5.2,3.4,7,10.5,6.6,16.4-.5,5.5-3.8,10.5-8.1,14.3,3.3-8.9,3.5-19.3-2.1-27.3-2.2-3.2-4.7-5.8-8.2-7.9-.8-.4-1.7-.3-2.4.3-1.8,1.5-3,3-4.2,4.7-5.5,8.2-6.6,20.1-.6,28.3,2.6,3.2,6.2,6.1,10.6,6,.5-.2.7-.8.5-1.3-2.2-6-3.4-12.5-3.5-18.9h-2c0,3.4.4,6.7,1,10,.5,2.7,1.2,5.3,2,7.9-9.5-3.3-11-16.6-6.9-24.9,1.1-2.4,2.9-4.8,4.9-6.6,7.5,4.7,11.3,14.1,10,22.9-.4,3.3-1.2,6.5-2.4,9.7-.3.8.7,1.7,1.4,1.2,12.7-6.8,18.1-22.4,10-34.9Z"/>
  </g>
  <g>
    <g>
      <path class="cls-3" d="m43.1,69.8c0,2.3-1.6,3.7-4.6,3.7h-4.7v-13h4.2c3.3,0,4.6,1.4,4.6,3.5s-.8,2.3-1.9,2.9c1.4.5,2.3,1.6,2.3,3Zm-5.1-8.1h-2.9v4.6h3.5c1.7,0,2.7-.9,2.7-2.2s-1-2.4-3.3-2.4Zm3.7,8c0-1.1-.9-2.2-3.1-2.2h-3.5v4.8h3.3c2,0,3.3-1,3.3-2.6Z"/>
      <path class="cls-3" d="m53.3,60.5h1.3v13h-1.3v-13Z"/>
      <path class="cls-3" d="m64.8,67c0-3.7,2.8-6.7,6.8-6.7s6.7,2.9,6.7,6.7-2.8,6.7-6.7,6.7-6.8-2.9-6.8-6.7Zm12.1,0c0-3.1-2.3-5.5-5.4-5.5s-5.4,2.4-5.4,5.5,2.3,5.5,5.4,5.5,5.4-2.3,5.4-5.5Z"/>
      <path class="cls-3" d="m111.9,73.5l-.3-10.3-4.5,8.2h-.9l-4.4-8.2-.4,10.3h-1.3l.5-13h.9l5.1,9.3,5.3-9.3h.9l.5,13h-1.3Z"/>
      <path class="cls-3" d="m131.8,70.5h-6.8l-1.2,2.9h-1.4l5.5-13h1.1l5.5,13h-1.4l-1.2-2.9Zm-6.4-1.2h5.9l-2.9-7.1-2.9,7.1Z"/>
      <path class="cls-3" d="m154.6,60.5v13.1h-.8l-8.7-10.7v10.5h-1.3v-13.1h.8l8.7,10.7v-10.6h1.3Z"/>
      <path class="cls-3" d="m165.5,68.2v-7.7h1.4v7.8c0,2.4,1.5,4.1,4.1,4.1s4-1.6,4-4.1v-7.8h1.3v7.7c0,3.5-2.1,5.4-5.3,5.4s-5.4-2-5.4-5.4Z"/>
      <path class="cls-3" d="m188.4,61.7v5.5h6.1v1.2h-6.1v5.2h-1.3v-13h8.2v1.2h-6.9Z"/>
      <path class="cls-3" d="m212.1,70.5h-6.8l-1.2,2.9h-1.4l5.5-13h1.1l5.5,13h-1.4l-1.2-2.9Zm-6.4-1.2h5.9l-2.9-7.1-2.9,7.1Z"/>
      <path class="cls-3" d="m231.9,73.5l-6.5-6v6h-1.3v-13h1.3v5.9l6.1-5.9h1.8l-6.6,6.4,7.2,6.6h-1.9Z"/>
      <path class="cls-3" d="m251.5,61.7h-4.4v11.8h-1.3v-11.8h-4.5v-1.2h10.3v1.2Z"/>
      <path class="cls-3" d="m260.7,68.2v-7.7h1.4v7.8c0,2.4,1.5,4.1,4.1,4.1s4-1.6,4-4.1v-7.8h1.3v7.7c0,3.5-2.1,5.4-5.3,5.4s-5.4-2-5.4-5.4Z"/>
      <path class="cls-3" d="m290.1,73.5l-3-4.3c-.3,0-.6,0-.9,0h-2.7v4.3h-1.3v-13h4.2c2.9,0,5,1.4,5,4.4s-1.1,3.3-2.8,4l3.2,4.6h-1.6Zm-3.9-5.5c2.3,0,3.8-1.2,3.8-3.2s-1.6-3.2-3.7-3.2h-2.8v6.4h2.7Z"/>
    </g>
    <g>
      <rect class="cls-1" x="4.9" y="58.5" width="15.8" height="15.8"/>
      <polygon class="cls-2" points="17.9 64.9 14.3 64.9 14.3 61.4 11.3 61.4 11.3 64.9 7.8 64.9 7.8 67.9 11.3 67.9 11.3 71.5 14.3 71.5 14.3 67.9 17.9 67.9 17.9 64.9"/>
    </g>
  </g>
</svg>